<svg version="1.2" xmlns="http://www.w3.org/2000/svg" viewBox="0 0 150 50" width="150" height="50"><style>.a{fill:#f3ba2f}</style><path class="a" d="m9 22.4l5.8-5.8 5.9 5.9 3.4-3.4-9.3-9.2-9.2 9.2z"/><path class="a" d="m3.2 21.4l3.4 3.4-3.4 3.4-3.4-3.4z"/><path class="a" d="m9 27.3l5.8 5.7 5.9-5.8 3.4 3.4-9.3 9.2-9.2-9.2z"/><path class="a" d="m29.8 24.9l-3.3 3.4-3.4-3.4 3.4-3.4z"/><path class="a" d="m18.3 24.9l-3.5-3.5-2.5 2.6-0.3 0.3-0.6 0.6 3.4 3.4z"/><path fill-rule="evenodd" class="a" d="m35.1 17.1h7.4q2.8 0 4.2 1.4 1 1.1 1 2.7 0 0.7-0.1 1.2-0.2 0.6-0.5 1-0.3 0.4-0.6 0.7-0.4 0.3-0.8 0.6 1.4 0.5 2.1 1.4 0.8 0.9 0.8 2.5 0 1.1-0.4 1.9-0.4 0.9-1.2 1.4-0.8 0.6-1.9 0.8-1.1 0.3-2.4 0.3h-7.6zm6.7 6.4q1.1 0 1.8-0.4 0.7-0.4 0.7-1.3 0-0.8-0.6-1.2-0.6-0.4-1.7-0.4h-3.5v3.4zm1 6.4q1.1 0 1.8-0.4 0.7-0.5 0.7-1.3v-0.1q0-0.8-0.7-1.3-0.6-0.4-1.9-0.4h-4.1v3.5z"/><path class="a" d="m53 17.1h3.5v15.9h-3.5z"/><path class="a" d="m61.8 17.1h3.3l7.4 9.8v-9.8h3.5v15.9h-3l-7.7-10.1v10.1h-3.5z"/><path fill-rule="evenodd" class="a" d="m86.6 17h3.2l6.8 16h-3.7l-1.4-3.6h-6.7l-1.5 3.6h-3.6zm3.7 9.4l-2.1-5.2-2.1 5.2z"/><path class="a" d="m100.4 17.1h3.3l7.4 9.8v-9.8h3.5v15.9h-3l-7.8-10.1v10.1h-3.4z"/><path class="a" d="m127.2 33.3q-1.8 0-3.3-0.6-1.5-0.7-2.6-1.8-1.1-1.1-1.7-2.6-0.6-1.5-0.6-3.2 0-1.7 0.6-3.2 0.6-1.5 1.7-2.7 1.1-1.1 2.6-1.7 1.5-0.6 3.4-0.6 1.1 0 2 0.1 0.9 0.2 1.7 0.5 0.7 0.3 1.3 0.8 0.7 0.5 1.2 1l-2.2 2.6q-0.9-0.9-1.9-1.3-1-0.5-2.2-0.5-1 0-1.8 0.3-0.9 0.4-1.5 1.1-0.6 0.7-0.9 1.6-0.4 0.9-0.4 1.9v0.1q0 1 0.4 1.9 0.3 0.9 0.9 1.6 0.6 0.7 1.5 1.1 0.8 0.4 1.8 0.4 1.4 0 2.3-0.5 1-0.5 1.9-1.4l2.2 2.2q-0.6 0.7-1.2 1.2-0.7 0.5-1.5 1-0.8 0.3-1.7 0.5-0.9 0.2-2 0.2z"/><path class="a" d="m137.8 17.1h11.9v3.1h-8.5v3.3h7.5v3.1h-7.5v3.3h8.7v3.1h-12.1z"/></svg>