<svg version="1.2" xmlns="http://www.w3.org/2000/svg" viewBox="0 0 150 50" width="150" height="50"><style>.a{fill:#25b135}</style><path class="a" d="m83.5 12.7h7.1v26.4h-7.1z"/><path class="a" d="m105.3 23.1l-2.6-0.6c-1.7-0.3-2.6-1.1-2.6-2.2 0-1.1 1.4-2 3.1-2 1.5-0.3 2.9 0.5 3.5 1.8l5.1-3.3c-1.8-2.9-5-4.6-8.3-4.6-2.3 0-4.6 0.6-6.5 1.9-2 1.3-3.1 3.6-3.2 5.9-0.1 4.1 2.5 7.1 7.3 8.5q1.2 0.3 2.7 0.7c2.3 0.4 2.6 1.2 2.6 2 0 1.5-1.3 2.3-3.4 2.2-2.2 0.1-4.2-1.1-5.2-3.1l-4.3 3.7c1.8 3.5 5.4 5.6 9.3 5.5 5.4 0.1 9.8-3.6 9.9-8.2 0-4.2-2.5-7.1-7.4-8.2z"/><path fill-rule="evenodd" class="a" d="m77.4 16.1c2.6 2.7 4 6.3 4 10 0.1 3.7-1.4 7.3-4 10-2.5 2.5-6 3.9-9.5 3.9h-1.8c-2.9-0.4-5.7-1.7-7.8-3.7-2.6-2.6-4-6.1-4-9.7v-0.4q-0.1-0.9 0-1.8v-21.1h6.7v11.4c1.9-1.5 4.4-2.4 6.9-2.4 3.5 0 6.9 1.4 9.5 3.8zm-9.4 17.8c5.1-0.2 6.8-4 6.8-7.8 0-3.6-1.8-7.6-6.9-7.6-2 0-3.9 0.9-5.2 2.3-1.3 1.5-2 3.3-1.9 5.3q0 1 0.2 2c0.4 2.7 2.5 4.9 5.3 5.5 0 0.1 0.2 0.2 0.3 0.1h0.2q0.6 0.2 1.2 0.2z"/><path fill-rule="evenodd" class="a" d="m141.2 48.9h-6.8v-11.4c-1.9 1.6-4.3 2.4-6.8 2.4-3.6 0-7-1.4-9.6-3.9-2.5-2.7-4-6.2-4-10 0-3.7 1.4-7.3 4-9.9 2.6-2.6 6-4 9.6-3.9h1.7c3 0.4 5.8 1.6 7.9 3.7 2.5 2.6 3.9 6.1 4 9.7zm-8.6-17.6c1.3-1.5 2-3.4 1.8-5.3v-0.5c0.1-3.3-2.2-6.2-5.4-7-0.1 0-0.3-0.1-0.4-0.1h-0.2q-0.5-0.1-1.1-0.1c-5 0-6.9 4-6.9 7.7 0 3.6 1.9 7.5 7 7.5 2 0 3.8-0.8 5.2-2.2z"/><path fill-rule="evenodd" class="a" d="m38.9 32.4c2.8-2.7 6.6 0.3 3.9 4-5.4 7.3-14.7 10.3-23.2 7.3-8.4-3-14.1-11-14.1-20.3 0-5.5 1.9-10.2 5.3-14.3 3.4-3.8 8.5-6.8 13.4-6.9 7 0 10.1 6.1 7.7 9.5-2.8 3.8-6 3.5-8.3 1.9 0 0-3.3-2.4-4.3-3.1-1.5-1.2-3.1-1.2-3.7 0.7-1 3.3-1.5 5.4-2.4 8.7q-0.5 2.5-0.5 5.1c0 3.2 1.4 6.2 3.7 8.1q2.5 2.3 5.3 4.2c1.5 1 3.3 1.6 5 1.6h0.2c1.8 0 3.5-0.6 5-1.6q3.7-2.2 7-4.9zm1.3-20.1c1.4 3.1 1.7 3.8 2.8 7 0.7 2-0.6 4.9-5.9 2.4-3.7-1.8-6.4-3-4.2-6q1.6-2.2 3.7-4c1.4-1.3 2.3-2.1 3.6 0.6zm-20.9 16.3c-1-0.4-3.2-2.3-2.6-3.8 0.3-0.8 2.2-1 2.8-1 3.5-0.1 3.6 6.1-0.2 4.8zm6.2 6.6c-0.5-0.4-1.3-1.2-2.1-1.8-0.2-0.2-0.2-0.6 0-0.9 0.1-0.2 0.4-0.3 0.7-0.3q2-0.2 4 0c0.2 0 0.5 0.1 0.6 0.4q0.2 0.4-0.1 0.8c-0.8 0.6-1.6 1.4-2 1.8-0.1 0.2-0.4 0.2-0.6 0.2-0.2 0-0.4 0-0.5-0.2zm7.8-6.6c-3.9 1.3-3.7-4.9-0.2-4.8 0.6 0 2.4 0.2 2.8 1 0.6 1.5-1.6 3.4-2.6 3.8z"/></svg>