<svg version="1.2" xmlns="http://www.w3.org/2000/svg" viewBox="0 0 150 50" width="150" height="50"><style>.a{fill:#f7a600}.b{fill:#14192c}.c{fill:none}</style><path class="a" d="m103.9 3.4h6.9v34.1h-6.9z"/><path fill-rule="evenodd" class="b" d="m24.1 47.6h-14.7v-34h14.1c6.9 0 10.8 3.7 10.8 9.5 0 3.8-2.5 6.3-4.3 7.1 2.1 0.9 4.9 3.1 4.9 7.6 0 6.4-4.5 9.8-10.8 9.8zm-1.1-28.1h-6.7v7.8h6.7c2.9 0 4.5-1.6 4.5-3.9 0-2.4-1.6-3.9-4.5-3.9zm0.4 13.8h-7.1v8.4h7.1c3.1 0 4.6-1.9 4.6-4.3 0-2.3-1.5-4.1-4.6-4.1z"/><path class="b" d="m55.7 33.6v14h-6.7v-14l-10.6-20h7.4l6.6 13.7 6.4-13.7h7.4z"/><path fill-rule="evenodd" class="b" d="m85.7 47.6h-14.7v-34h14.1c6.8 0 10.8 3.7 10.8 9.5 0 3.8-2.5 6.3-4.3 7.1 2.1 0.9 4.8 3.1 4.8 7.6 0 6.4-4.5 9.8-10.7 9.8zm-1.1-28.1h-6.7v7.8h6.7c2.8 0 4.5-1.6 4.5-3.9 0-2.4-1.7-3.9-4.5-3.9zm0.4 13.8h-7.2v8.4h7.2c3.1 0 4.6-1.9 4.6-4.3 0-2.3-1.5-4.1-4.6-4.1z"/><path class="b" d="m132.8 19.5v28.1h-6.8v-28.1h-9.1v-5.9h25.1v5.9z"/><path class="c" d="m5-1.6h141.4v54.3h-141.4z"/></svg>