<svg version="1.2" xmlns="http://www.w3.org/2000/svg" viewBox="0 0 150 50" width="150" height="50"><style>.a{fill:#0667d0}</style><path fill-rule="evenodd" class="a" d="m16.8 35q1.6 0 3.1-0.5c0 0 1.9 3 2 3q-0.7 0.4-1.4 0.6-0.7 0.3-1.4 0.5-0.7 0.2-1.4 0.2-0.7 0.1-1.4 0.1c-6.1 0-10.4-4-10.4-10.3 0-6.3 4.5-10.3 10.3-10.3 2.1 0 3.7 0.5 5.4 1.3l-1.9 3.1q-1.5-0.4-3.1-0.4c-3.5 0-6.3 2.2-6.3 6.3 0 4 2.7 6.4 6.5 6.4zm15.2 3.9c-5.6 0-10.2-4.6-10.2-10.3 0-5.7 4.6-10.3 10.2-10.3 5.6 0 10.2 4.6 10.2 10.3 0 5.7-4.6 10.3-10.2 10.3zm5.7-10.3c0-3.6-2.5-6.6-5.7-6.6-3.2 0-5.8 3-5.8 6.6 0 3.6 2.6 6.6 5.8 6.6 3.2 0 5.7-3 5.7-6.6zm7.2-9.9h4.4v19.7h-4.4zm-0.6-6.1c0.1-0.7 0.5-1.2 0.9-1.7 0.5-0.5 1.2-0.8 1.9-0.8 0.7 0 1.4 0.3 1.9 0.8 0.6 0.5 0.8 1 0.9 1.7q0 0.6-0.2 1.1-0.2 0.6-0.6 0.9-0.5 0.4-0.9 0.6-0.5 0.3-1.1 0.3-0.6 0-1-0.3-0.5-0.2-1-0.6-0.3-0.3-0.6-0.9-0.1-0.5-0.2-1.1zm8.9 7.4q1.1-0.4 2.2-0.8 1.1-0.2 2.3-0.5 1-0.2 2.2-0.3 1.2-0.1 2.3-0.1c5.1 0 8.2 1.8 8.2 7.5v12.6h-4.3v-12.3c0-2.8-1.8-3.8-4.2-3.8-1.5 0-3.2 0.2-4.2 0.5v15.6h-4.5zm21-11.8h4.3v11c1-0.5 2.8-0.9 4.5-0.9 5.7 0 9.9 3.6 9.9 9.9 0 6.4-4.1 10.7-11.5 10.7-2.8 0-5.2-0.6-7.2-1.3zm4.3 26.5c0.8 0.2 2 0.5 3.1 0.5 4.1 0 7-2.3 7-6.8 0-3.9-2.8-6.1-6.1-6.1-1.8 0-3 0.4-4 0.9zm27.2-9.5c0-2.1-1.6-3-3.7-3-2.3 0-4.1 0.5-5.8 1.5v-3.8q0.8-0.4 1.5-0.7 0.9-0.3 1.7-0.6 0.8-0.2 1.6-0.2 0.8-0.1 1.7-0.1c4.3 0 7.3 1.8 7.3 6.7v13c-1.8 0.6-4.5 0.8-6.8 0.8-5 0-8.7-1.5-8.7-6 0-4 3.4-5.9 9.1-5.9h2.1zm0 4.5h-1.9c-3 0-5 1-5 3 0 1.9 1.9 2.8 4.6 2.8 0.5 0 1.5-0.2 2.3-0.3zm8.9 4.2q0.7 0.5 1.4 0.8 0.8 0.2 1.7 0.4 0.7 0.1 1.5 0.1c2 0 3.3-0.5 3.3-2.2 0-1.5-1.2-2.1-3.7-2.8-4.1-0.9-5.8-2.6-5.8-6 0-4 3-6 7-6 2.2 0 4 0.5 5.6 1.6v4q-0.6-0.5-1.3-0.9-0.5-0.3-1.3-0.6-0.7-0.2-1.4-0.3-0.8-0.1-1.5-0.2c-1.9 0-2.9 0.9-2.9 2.2 0 1.3 0.8 2 3 2.6 4.6 1 6.5 2.7 6.5 6.2 0 4.2-3.1 6.1-7.4 6.1q-0.8 0-1.5-0.1-0.8-0.2-1.7-0.3-0.7-0.2-1.5-0.6-0.7-0.2-1.4-0.7v-4.2q0.7 0.6 1.4 0.9zm18.2-4.4v0.1c0.2 3.5 3.3 5.5 6.3 5.5 2.7 0 4.7-0.7 6.7-2v3.9c-1.8 1.3-4.5 1.9-6.9 1.9-6.2 0-10.3-4-10.3-10.2 0-6.2 3.9-10.5 9.4-10.5 5.8 0 8.5 3.7 8.5 9.1v2.2zm9.6-2.8c-0.1-3.1-1.6-4.7-4.5-4.7-2.5 0-4.4 1.8-5 4.7zm-29.2 6.3z"/></svg>