<svg version="1.2" xmlns="http://www.w3.org/2000/svg" viewBox="0 0 150 50" width="150" height="50"><style>.a{fill:#5741d9}</style><path class="a" d="m18.3 12c2.5-0.1 5 0.4 7.2 1.5 3.3 1.6 5.9 4.5 7.1 7.9q0.8 2.3 0.8 4.8v5.9q0 0.4 0 0.8c-0.1 0.6-0.6 1.1-1.2 1.4-0.4 0.2-0.8 0.2-1.2 0.1-0.9-0.2-1.6-1-1.6-1.9q0-2.8 0-5.6c0-0.5 0-1.1-0.3-1.5-0.4-0.9-1.6-1.3-2.5-0.9-0.7 0.2-1.2 1-1.3 1.8q0 2.8 0 5.6c0 0.4 0.1 0.8-0.1 1.1-0.1 0.7-0.7 1.2-1.4 1.4-0.8 0.2-1.9-0.2-2.3-1-0.3-0.4-0.3-1.1-0.3-1.6 0-1.9 0-3.7 0-5.6 0-0.9-0.7-1.8-1.7-1.9-0.6-0.1-1.2 0.1-1.7 0.5-0.4 0.4-0.6 1-0.6 1.5v5.4c0 0.5 0 1-0.2 1.4-0.2 0.8-1 1.3-1.8 1.3-0.9 0.1-1.7-0.5-2-1.3-0.1-0.4-0.1-0.8-0.1-1.3q0-2.8 0-5.6c0-0.9-0.7-1.8-1.6-1.9-0.8-0.2-1.8 0.2-2.2 1q-0.3 0.4-0.3 1v6.1c0 0.6-0.2 1.2-0.6 1.6-0.7 0.6-1.9 0.6-2.6 0.1-0.5-0.4-0.8-1-0.8-1.7v-6.1c0-2.4 0.6-4.7 1.7-6.8 0.9-1.6 2.2-3.1 3.7-4.3 2.2-1.9 5-3 7.9-3.2z"/><path fill-rule="evenodd" class="a" d="m73.8 19.2h-3c0.1-2.2 0.5-4.1 2.5-5.3 2-1.2 4.1-1.6 6.4-1.3 1.2 0.1 2.4 0.3 3.5 0.8 2 0.9 3 2.5 3 4.7q0 5.7 0 11.4c0 1.4 0.3 1.7 1.7 1.6 0.1-0.1 0.3-0.1 0.4-0.1 0.1 0.1 0.1 0.1 0.1 0.2v2.3c-1.2 0.4-2.3 0.5-3.5 0.2-0.8-0.2-1.3-0.8-1.6-1.6-0.1-0.4-0.2-0.9-0.3-1.3q-0.2 0.2-0.3 0.4c-2.5 2.4-5.4 3.5-8.8 2.6-2.5-0.6-4.1-2.8-4.2-5.3 0-0.8 0-1.7 0.2-2.4 0.5-1.9 1.8-2.9 3.4-3.7 1.1-0.5 2.4-0.7 3.6-0.8 1.5-0.2 2.9-0.4 4.3-0.6 1-0.1 1.5-0.6 1.7-1.6 0.3-2-0.6-3.3-2.5-3.8-1.2-0.2-2.3-0.3-3.5-0.1-1.7 0.3-2.7 1.3-3 3 0 0.2 0 0.4-0.1 0.7zm9.2 3.8c-1.5 0.8-2.8 1-4.3 1.2-1.1 0.2-2.3 0.3-3.4 0.7-1.6 0.5-2.2 1.7-2.1 3.4 0.1 1.4 1 2.5 2.6 2.7 2.3 0.4 4.3-0.2 5.9-2 0.5-0.4 0.9-1.1 1-1.8 0.2-1.3 0.2-2.7 0.3-4.2zm44 4c-0.1 0.3-0.1 0.6-0.2 0.9-1.3 4-4 5.8-7.3 6.2-5.7 0.6-8.9-3.1-9.8-7.1-0.7-3.1-0.6-6.2 0.8-9.1 1.3-2.8 3.4-4.7 6.5-5.2 3.8-0.7 9 1.2 9.9 7 0.2 1.5 0.3 3.1 0.4 4.6h-14.4c0.1 2.1 0.5 4.1 2 5.7 0.7 0.6 1.5 0.9 2.4 1.1 2.9 0.5 5.4-0.9 6.3-3.7 0.1-0.3 0.2-0.4 0.5-0.4 1 0 1.9 0 2.9 0zm-14-5.5h10.8c-0.1-1.2-0.3-2.4-0.9-3.5-0.6-1-1.4-1.8-2.5-2.2-3.8-1.3-7.6 1.8-7.4 5.7zm21.7 11.9h-3.2v-20.4h3.1v2.8c0.2-0.2 0.3-0.4 0.5-0.5 2.2-2.6 5.1-3.3 8.2-2.5 2.3 0.6 3.5 2.1 3.9 4.3q0.3 1.4 0.3 2.7 0.1 6.6 0 13.2c0 0.1 0 0.2 0 0.4h-3.4v-0.6c0-4.1 0.1-8.2 0-12.2 0-1-0.1-1.9-0.4-2.7-0.4-1.5-1.6-2.2-3-2.3-2.8-0.1-4.9 1.3-5.6 3.7-0.3 1-0.3 1.9-0.3 2.8q-0.1 5.3-0.1 10.7zm-43.2-20.4h3.2v8.6c0.2-0.1 0.3-0.2 0.4-0.3q3.9-4 7.8-8c0.2-0.3 0.4-0.4 0.8-0.4 1.1 0.1 2.4 0 3.7 0-0.2 0.3-0.3 0.4-0.4 0.5-2.3 2.3-4.5 4.6-6.8 6.8-0.3 0.3-0.3 0.5-0.1 0.8q3.7 5.9 7.4 11.8 0.2 0.3 0.3 0.6c-0.1 0-0.3 0-0.4 0q-1.7 0-3.4 0c-0.3 0-0.5-0.1-0.6-0.4q-2.9-4.7-5.7-9.5c-0.1-0.2-0.2-0.3-0.3-0.5-0.9 0.9-1.7 1.7-2.6 2.6-0.2 0.1-0.2 0.3-0.2 0.5q0 3.3 0 6.7v0.6q-0.9 0-1.8 0c-0.4 0-1 0.1-1.3-0.1-0.2-0.3 0-0.9 0-1.3v-18.4c0-0.2 0-0.3 0-0.6zm-36.4-0.1c-2.6 2.6-5.1 5.1-7.7 7.6 2.8 4.3 5.4 8.6 8.1 12.9q-0.3 0-0.5 0-1.6 0-3.3 0c-0.3 0-0.5-0.1-0.7-0.4q-2.8-4.7-5.7-9.5c0-0.2-0.1-0.3-0.2-0.5-0.6 0.5-1 1.1-1.5 1.4-1 0.8-1.4 1.8-1.3 3.1 0.1 1.8 0 3.6 0 5.3v0.6h-3.1v-20.4h3.1v8.5q0.1 0.1 0.2 0.1c0.1-0.1 0.2-0.3 0.3-0.4 2.5-2.6 5.1-5.2 7.7-7.9 0.2-0.3 0.4-0.4 0.8-0.4 1 0.1 2.1 0 3.2 0 0.1 0 0.3 0 0.6 0zm6.2 3.5c1.6-2.4 3.3-4.3 6.5-3.8v3.6c-0.9 0-1.7 0-2.5 0.2-1.9 0.3-3.4 2.1-3.7 4.3-0.1 0.4-0.1 0.8-0.1 1.2q0 5.5 0 10.9v0.6h-3.3v-20.4h3.1c0 1.1 0 2.2 0 3.4z"/></svg>