<svg version="1.2" xmlns="http://www.w3.org/2000/svg" viewBox="0 0 300 100" width="300" height="100">
	<title>Binance-svg</title>
	<style>
		.s0 { fill: #f3ba2f } 
	</style>
	<path id="Layer" class="s0" d="m18.1 44.9l11.6-11.7 11.7 11.7 6.8-6.8-18.5-18.4-18.4 18.4z"/>
	<path id="Layer" class="s0" d="m6.5 42.9l6.8 6.8-6.8 6.8-6.8-6.8z"/>
	<path id="Layer" class="s0" d="m18.1 54.5l11.6 11.6 11.7-11.6 6.8 6.7-18.5 18.5-18.4-18.5z"/>
	<path id="Layer" class="s0" d="m59.7 49.7l-6.7 6.8-6.8-6.8 6.8-6.8z"/>
	<path id="Layer" class="s0" d="m36.6 49.7l-6.9-6.9-5 5.1-0.6 0.6-1.2 1.2 6.8 6.9 6.9-6.9z"/>
	<path id="Layer" fill-rule="evenodd" class="s0" d="m70.3 34.2h14.8q5.5 0 8.3 2.8 2.1 2.2 2.1 5.4v0.1q0 1.4-0.3 2.4-0.3 1.1-0.9 1.9-0.6 0.9-1.3 1.5-0.8 0.6-1.6 1.1 2.8 1 4.3 2.8 1.6 1.8 1.6 5v0.1q0 2.2-0.8 3.8-0.9 1.7-2.4 2.7-1.6 1.1-3.8 1.7-2.2 0.5-4.9 0.5h-15.1zm13.3 12.9q2.3 0 3.7-0.8 1.3-0.8 1.3-2.6v-0.1q0-1.6-1.1-2.4-1.2-0.8-3.5-0.8h-6.9v6.7zm1.9 12.8q2.3 0 3.6-0.8 1.4-0.9 1.4-2.6v-0.1q0-1.6-1.3-2.6-1.2-0.9-3.9-0.9h-8.1v7c0 0 8.3 0 8.3 0z"/>
	<path id="Layer" class="s0" d="m106.1 34.2h7v31.8h-7z"/>
	<path id="Layer" class="s0" d="m123.7 34.2h6.5l14.9 19.6v-19.6h6.9v31.8h-6l-15.4-20.2v20.2h-6.9z"/>
	<path id="Layer" fill-rule="evenodd" class="s0" d="m173.2 34h6.4l13.7 32h-7.4l-2.9-7.1h-13.4l-2.9 7.1h-7.2zm7.4 18.8l-4.2-10.4-4.3 10.4z"/>
	<path id="Layer" class="s0" d="m200.8 34.2h6.5l14.9 19.6v-19.6h6.9v31.8h-6l-15.4-20.2v20.2h-6.9z"/>
	<path id="Layer" class="s0" d="m254.3 66.6q-3.5 0-6.5-1.3-3-1.3-5.2-3.5-2.2-2.2-3.4-5.2-1.2-3-1.2-6.4v-0.1q0-3.4 1.2-6.4 1.2-2.9 3.4-5.2 2.2-2.2 5.2-3.5 3.1-1.3 6.8-1.3 2.2 0 4 0.3 1.9 0.4 3.4 1 1.5 0.7 2.7 1.6 1.3 0.9 2.4 2l-4.4 5.1q-1.9-1.7-3.8-2.6-2-1-4.4-1-2 0-3.7 0.8-1.7 0.8-2.9 2.1-1.2 1.4-1.9 3.2-0.7 1.8-0.7 3.8v0.1q0 2.1 0.7 3.9 0.7 1.8 1.9 3.2 1.2 1.3 2.9 2.1 1.7 0.8 3.7 0.8 2.7 0 4.6-1 1.9-1 3.8-2.7l4.4 4.5q-1.2 1.3-2.5 2.4-1.3 1-2.9 1.8-1.6 0.7-3.4 1.1-1.9 0.4-4.2 0.4z"/>
	<path id="Layer" class="s0" d="m275.6 34.2h23.9v6.2h-17v6.5h15v6.2h-15v6.7h17.3v6.2h-24.2z"/>
</svg>