<svg version="1.2" xmlns="http://www.w3.org/2000/svg" viewBox="0 0 300 100" width="300" height="100">
	<title>Bybit-svg</title>
	<style>
		.s0 { fill: #f7a600 } 
		.s1 { fill: #14192c } 
		.s2 { fill: none } 
	</style>
	<path id="Layer" class="s0" d="m202.7 9.1h12.8v63.8h-12.8z"/>
	<path id="Layer" fill-rule="evenodd" class="s1" d="m53.1 91.9h-27.5v-63.8h26.4c12.9 0 20.3 7 20.3 17.9 0 7.1-4.8 11.7-8.1 13.2 4 1.8 9.1 5.8 9.1 14.3 0 11.9-8.4 18.4-20.2 18.4zm-2.1-52.7h-12.5v14.7h12.5c5.5 0 8.5-3 8.5-7.4 0-4.4-3-7.3-8.5-7.3zm0.9 25.9h-13.4v15.6h13.4c5.8 0 8.5-3.5 8.5-7.9 0-4.3-2.7-7.7-8.5-7.7z"/>
	<path id="Layer" class="s1" d="m112.4 65.7v26.2h-12.7v-26.2l-19.8-37.6h13.9l12.3 25.7 12.1-25.7h13.9z"/>
	<path id="Layer" fill-rule="evenodd" class="s1" d="m168.5 91.9h-27.5v-63.8h26.4c12.8 0 20.3 7 20.3 17.9 0 7.1-4.8 11.7-8.1 13.2 3.9 1.8 9 5.8 9 14.3 0 11.9-8.4 18.4-20.1 18.4zm-2.1-52.7h-12.5v14.7h12.5c5.4 0 8.5-3 8.5-7.4 0-4.4-3.1-7.3-8.5-7.3zm0.8 25.9h-13.4v15.6h13.4c5.8 0 8.6-3.5 8.6-7.9 0-4.3-2.8-7.7-8.6-7.7z"/>
	<path id="Layer" class="s1" d="m256.8 39.2v52.7h-12.8v-52.7h-17.1v-11.1h47.1v11.1z"/>
	<path id="Layer" class="s2" d="m17.4-0.4h264.9v101.8h-264.9z"/>
</svg>