<svg version="1.2" xmlns="http://www.w3.org/2000/svg" viewBox="0 0 300 100" width="300" height="100">
	<title>Coinbase-svg</title>
	<style>
		.s0 { fill: #0667d0 } 
	</style>
	<path id="Layer" fill-rule="evenodd" class="s0" d="m106.3 61.9q1.4 0 2.7-0.5c0 0 1.6 2.6 1.7 2.6q-0.6 0.3-1.2 0.5-0.6 0.3-1.2 0.4-0.6 0.2-1.2 0.2-0.6 0.1-1.2 0.1c-5.2 0-8.9-3.4-8.9-8.8 0-5.4 3.9-8.8 8.8-8.8 1.8 0 3.2 0.4 4.6 1.1l-1.6 2.7q-1.3-0.4-2.6-0.4c-3 0-5.4 1.9-5.4 5.4 0 3.4 2.3 5.5 5.5 5.5zm13-14.3c5 0 8.7 3.6 8.7 8.8 0 5.2-3.7 8.8-8.7 8.8-5 0-8.7-3.6-8.7-8.8 0-5.2 3.7-8.8 8.7-8.8zm0 3.2c-2.8 0-4.9 2.2-4.9 5.6 0 3.4 2.1 5.6 4.9 5.6 2.9 0 4.9-2.2 4.9-5.6 0-3.4-2-5.6-4.9-5.6zm11-2.8h3.8v16.8h-3.8zm-0.5-5.2c0.1-0.6 0.4-1.1 0.8-1.5 0.4-0.4 1-0.7 1.6-0.7 0.6 0 1.2 0.3 1.6 0.7 0.5 0.4 0.7 0.9 0.8 1.5q0 0.5-0.2 0.9-0.2 0.5-0.5 0.8-0.4 0.3-0.8 0.5-0.4 0.2-0.9 0.2-0.5 0-0.9-0.2-0.4-0.2-0.8-0.5-0.3-0.3-0.5-0.8-0.1-0.4-0.2-0.9zm7.6 6.3q0.9-0.4 1.9-0.7 0.9-0.2 1.9-0.4 0.9-0.2 1.9-0.3 1-0.1 2-0.1c4.3 0 7 1.6 7 6.4v10.8h-3.7v-10.5c0-2.4-1.5-3.3-3.6-3.3-1.3 0-2.7 0.2-3.6 0.5v13.3h-3.8c0 0 0-15.7 0-15.7zm17.9-10.1h3.7v9.4c0.8-0.4 2.4-0.8 3.8-0.8 4.9 0 8.5 3.1 8.5 8.5 0 5.4-3.5 9.1-9.8 9.1-2.4 0-4.5-0.5-6.2-1.1zm3.7 22.6c0.7 0.2 1.7 0.4 2.6 0.4 3.5 0 6-1.9 6-5.8 0-3.3-2.4-5.2-5.2-5.2-1.5 0-2.6 0.4-3.4 0.8zm23.2-8.1c0-1.8-1.4-2.6-3.2-2.6-1.9 0-3.5 0.5-4.9 1.3v-3.2q0.7-0.4 1.3-0.6 0.7-0.3 1.4-0.5 0.7-0.2 1.4-0.2 0.7-0.1 1.4-0.1c3.7 0 6.3 1.5 6.3 5.7v11.1c-1.6 0.5-3.9 0.7-5.8 0.7-4.3 0-7.5-1.3-7.5-5.1 0-3.4 2.9-5.1 7.8-5.1h1.8c0 0 0-1.4 0-1.4zm0 3.9h-1.6c-2.6 0-4.3 0.8-4.3 2.5 0 1.7 1.6 2.4 3.9 2.4 0.5 0 1.3-0.1 2-0.2v-4.7zm6.4 2.8q0 0 0 0zm1.2 0.8q0.6 0.4 1.2 0.6 0.7 0.2 1.4 0.4 0.6 0.1 1.3 0.1c1.7 0 2.8-0.5 2.8-1.9 0-1.3-1-1.8-3.1-2.4-3.5-0.8-5-2.2-5-5.1 0-3.4 2.6-5.1 6-5.1 1.9 0 3.4 0.4 4.8 1.3v3.4q-0.5-0.4-1.1-0.7-0.5-0.3-1.1-0.5-0.6-0.2-1.2-0.3-0.7-0.1-1.3-0.2c-1.6 0-2.5 0.8-2.5 1.9 0 1.1 0.7 1.7 2.6 2.2 3.9 0.9 5.5 2.3 5.5 5.3 0 3.6-2.6 5.2-6.3 5.2q-0.7 0-1.3-0.1-0.7-0.1-1.4-0.2-0.6-0.2-1.3-0.5-0.6-0.2-1.2-0.6v-3.6q0.6 0.5 1.2 0.8zm15.5-3.8v0.1c0.2 3 2.8 4.7 5.4 4.7 2.3 0 4-0.6 5.7-1.7v3.3c-1.5 1.1-3.8 1.6-5.9 1.6-5.3 0-8.8-3.4-8.8-8.7 0-5.3 3.4-8.9 8.1-8.9 4.9 0 7.2 3.1 7.2 7.7v1.9c0 0-11.7 0-11.7 0zm8.2-2.4c-0.1-2.6-1.4-4-3.8-4-2.2 0-3.8 1.5-4.3 4z"/>
</svg>