<svg version="1.2" xmlns="http://www.w3.org/2000/svg" viewBox="0 0 300 100" width="300" height="100">
	<title>kraken-svg</title>
	<style>
		.s0 { fill: #5741d9 } 
	</style>
	<path id="_x23_0da8ffff_1_" class="s0" d="m35.9 25.6c4.8-0.3 9.8 0.7 14.1 2.9 6.4 3.1 11.5 8.8 13.9 15.5 1.1 3 1.6 6.1 1.6 9.3v11.7c0 0.5 0 1 0 1.4-0.3 1.2-1.2 2.3-2.3 2.8-0.8 0.4-1.7 0.4-2.5 0.3-1.7-0.4-3.1-2-3.1-3.8q0-5.5 0-10.9c0-1.1 0-2.2-0.5-3.1-0.9-1.7-3.2-2.4-4.9-1.7-1.5 0.5-2.5 2-2.6 3.6q0 5.5 0 11c0 0.7 0.1 1.4-0.2 2.1-0.3 1.3-1.4 2.3-2.7 2.7-1.7 0.4-3.7-0.3-4.5-1.9-0.6-0.9-0.6-2.1-0.6-3.2 0-3.6 0-7.3 0-10.9 0-1.9-1.5-3.6-3.4-3.8-1.2-0.2-2.4 0.2-3.3 1.1-0.8 0.7-1.2 1.8-1.2 2.8v10.7c0 0.9 0.1 1.8-0.3 2.7-0.5 1.5-2 2.6-3.6 2.6-1.7 0.1-3.3-1.1-3.9-2.6-0.2-0.8-0.2-1.6-0.2-2.5q0-5.5 0-11c0-1.8-1.4-3.5-3.2-3.8-1.6-0.3-3.4 0.4-4.2 1.9-0.4 0.6-0.6 1.3-0.6 2v12c0 1.2-0.5 2.3-1.3 3.1-1.4 1.2-3.6 1.2-5 0.2-1-0.7-1.6-1.9-1.6-3.2v-12.1c0-4.6 1.1-9.1 3.3-13.2 1.8-3.3 4.3-6.2 7.2-8.6 4.3-3.6 9.9-5.7 15.6-6.1z"/>
	<path id="Layer" fill-rule="evenodd" class="s0" d="m144.7 39.7h-6c0.2-4.3 1.1-8.1 5-10.5 3.8-2.4 8.1-3 12.5-2.6 2.4 0.2 4.7 0.7 6.9 1.7 3.9 1.8 5.8 4.8 5.8 9.1q0 11.2 0 22.5c0 2.7 0.6 3.2 3.3 3 0.3-0.1 0.6-0.1 0.9-0.2 0.1 0.2 0.1 0.3 0.1 0.4v4.6c-2.2 0.7-4.5 0.9-6.7 0.3-1.6-0.4-2.6-1.6-3.2-3.1-0.3-0.8-0.4-1.7-0.7-2.6-0.2 0.3-0.4 0.6-0.6 0.8-4.8 4.8-10.5 6.9-17.2 5.2-4.8-1.3-8-5.6-8.2-10.5 0-1.6 0.1-3.2 0.5-4.7 0.9-3.6 3.4-5.7 6.6-7.2 2.2-1 4.6-1.3 7-1.6 2.9-0.4 5.7-0.7 8.5-1.1 1.9-0.3 2.9-1.3 3.2-3.2 0.6-3.9-1.1-6.4-4.9-7.4-2.2-0.5-4.5-0.6-6.8-0.2-3.3 0.6-5.2 2.5-5.8 5.8 0 0.5-0.1 0.9-0.2 1.5zm17.9 7.4c-2.8 1.5-5.5 1.9-8.3 2.3-2.3 0.4-4.6 0.7-6.8 1.4-3 1-4.3 3.4-4 6.7 0.2 2.7 2 4.8 5 5.3 4.5 0.8 8.5-0.5 11.7-3.9 0.9-0.9 1.6-2.3 1.8-3.6 0.4-2.6 0.4-5.3 0.6-8.2zm86.3 7.8c-0.1 0.7-0.2 1.2-0.4 1.8-2.6 7.9-7.9 11.3-14.3 12.1-11.2 1.2-17.5-6.1-19.2-13.8-1.3-6.2-1.1-12.3 1.6-18 2.6-5.5 6.7-9.1 12.8-10.2 7.3-1.3 17.6 2.4 19.4 13.8 0.4 2.9 0.5 6 0.8 9h-28.3c0.2 4.2 0.9 8.1 3.9 11.2 1.3 1.2 2.9 1.8 4.7 2.2 5.7 1 10.5-1.8 12.3-7.3 0.2-0.6 0.5-0.8 1.1-0.8 1.8 0 3.6 0 5.6 0zm-27.4-10.7h21.2c-0.2-2.4-0.7-4.7-1.8-6.9-1.1-2-2.8-3.5-5-4.3-7.3-2.5-14.9 3.4-14.4 11.2zm42.6 23.2h-6.4v-39.9h6.1v5.5c0.5-0.5 0.7-0.8 1-1.1 4.4-5 9.9-6.3 16.1-4.8 4.4 1.1 6.8 4.2 7.6 8.5 0.4 1.7 0.6 3.5 0.6 5.3q0.1 12.9 0 25.7c0 0.3 0 0.5 0 0.8h-6.6v-1.1c0-8 0.1-16 0-24 0-1.8-0.3-3.6-0.8-5.3-0.8-2.8-3.1-4.3-6-4.5-5.4-0.2-9.6 2.7-10.9 7.4-0.5 1.8-0.6 3.6-0.6 5.4q-0.1 10.5-0.1 21zm-84.7-40h6.2v16.9c0.4-0.3 0.6-0.5 0.8-0.7 5.1-5.2 10.2-10.4 15.3-15.6 0.4-0.5 0.8-0.7 1.5-0.7 2.3 0.1 4.8 0 7.4 0-0.4 0.4-0.6 0.6-0.8 0.9-4.5 4.5-8.9 9-13.4 13.4-0.6 0.5-0.6 0.8-0.2 1.4q7.3 11.7 14.5 23.3c0.2 0.3 0.4 0.6 0.6 1-0.3 0.1-0.6 0.1-0.8 0.1-2.3 0-4.5 0-6.7 0-0.6 0-0.9-0.3-1.2-0.7q-5.6-9.4-11.2-18.8c-0.2-0.3-0.3-0.6-0.5-0.9-1.8 1.7-3.4 3.4-5.1 5.1-0.3 0.2-0.3 0.6-0.3 1q0 6.5 0 13.1v1.1q-1.8 0-3.6 0c-0.8 0-2 0.2-2.5-0.2-0.4-0.4-0.1-1.6-0.1-2.4v-36.2c0.1-0.3 0.1-0.6 0.1-1.1zm-71.5-0.1c-5 5-9.9 9.9-14.9 14.8 5.3 8.5 10.5 16.8 15.8 25.3-0.4 0-0.7 0-1 0-2.1 0-4.3 0-6.5 0-0.6 0-1-0.2-1.3-0.7q-5.6-9.4-11.2-18.8c-0.1-0.3-0.3-0.5-0.5-0.9-1 1-1.8 2.1-2.8 2.8-2.1 1.6-2.7 3.5-2.6 6.1 0.3 3.4 0.1 6.9 0.1 10.3v1.1h-6.2v-39.9h6.2v16.7q0.2 0.1 0.3 0.2c0.2-0.2 0.3-0.6 0.5-0.8 5-5.2 10.1-10.3 15.1-15.5 0.5-0.5 0.9-0.7 1.6-0.7 2.1 0.1 4.2 0 6.3 0 0.3 0 0.6 0 1.1 0zm12.3 6.7c3.1-4.6 6.4-8.4 12.6-7.3v6.9c-1.7 0.1-3.3 0-4.8 0.4-3.8 0.7-6.7 4.2-7.3 8.4-0.1 0.8-0.2 1.7-0.2 2.5q0 10.7 0 21.4v1.1h-6.4v-39.9h6.1c0 2.1 0 4.2 0 6.5z"/>
</svg>