<svg version="1.2" xmlns="http://www.w3.org/2000/svg" viewBox="0 0 150 50" width="150" height="50"><style>.a{fill:none}.b{fill:#23af91}</style><path class="a" d="m-0.2 0.4h148v55.2h-148z"/><path fill-rule="evenodd" class="b" d="m107.7 29.9c0 0.5-0.1 1.1-0.2 1.6-0.1 0.5-0.3 1-0.5 1.5-0.3 0.5-0.6 0.9-1 1.3-0.6 0.5-1.3 1-2 1.3-0.8 0.4-1.6 0.5-2.5 0.5-0.7 0-1.6-0.2-2.4-0.5-0.8-0.3-1.4-0.7-2-1.3-0.4-0.4-0.8-0.8-1-1.3-0.2-0.5-0.4-1-0.5-1.5-0.1-0.4-0.2-1-0.2-1.6 0-0.6 0-1.3 0-2 0-0.7 0-1.4 0-2 0-0.5 0.1-1.1 0.2-1.7 0.1-0.4 0.3-0.9 0.5-1.4 0.3-0.5 0.6-0.9 1-1.3 0.6-0.5 1.3-1 2-1.3 0.8-0.4 1.6-0.5 2.4-0.5 0.9 0 1.7 0.2 2.5 0.5 0.8 0.4 1.4 0.8 2 1.4 0.4 0.4 0.8 0.8 1 1.3 0.2 0.5 0.4 0.9 0.5 1.4 0.1 0.5 0.2 1.1 0.2 1.7 0 0.6 0 1.3 0 2 0.1 0.7 0 1.4 0 1.9zm-3.2-3.9c0-0.4 0-0.9-0.1-1.3-0.1-0.3-0.2-0.5-0.3-0.8-0.1-0.1-0.2-0.3-0.4-0.5-0.3-0.2-0.6-0.5-0.9-0.6-0.4-0.1-0.8-0.2-1.2-0.2-0.4 0-0.7 0-1.1 0.2-0.3 0.1-0.7 0.3-0.9 0.6-0.2 0.2-0.3 0.4-0.4 0.5-0.1 0.2-0.2 0.5-0.2 0.8 0 0.4-0.1 0.9-0.1 1.3 0 0.5 0 1.2 0 2 0 0.8 0 1.5 0 2 0 0.4 0 0.9 0.1 1.3 0 0.2 0.1 0.4 0.2 0.7 0.1 0.2 0.2 0.4 0.4 0.6 0.2 0.2 0.6 0.5 0.9 0.6 0.4 0.1 0.7 0.2 1.1 0.2 0.4 0 0.8 0 1.2-0.2q0.6-0.2 0.9-0.6c0.2-0.2 0.3-0.4 0.4-0.6 0.2-0.2 0.3-0.5 0.3-0.7 0-0.4 0.1-0.9 0.1-1.3 0-0.5 0-1.2 0-2 0-0.8 0-1.4 0-2z"/><path class="b" d="m133.1 20.1q0-0.3-0.3-0.3h-2.5q-0.3 0-0.3 0.3v9.8l-6.4-10c0-0.1-0.1-0.1-0.2-0.1h-2.5q-0.3 0-0.3 0.3v15.8q0 0.3 0.3 0.3h2.7q0.2 0 0.2-0.3v-9.8l6.5 10c0 0.1 0.1 0.1 0.2 0.1h2.4q0.3 0 0.3-0.3z"/><path class="b" d="m115.5 20.1q0-0.3-0.3-0.3h-2.7q-0.3 0-0.3 0.3v15.8q0 0.3 0.3 0.3h2.7q0.3 0 0.3-0.3z"/><path class="b" d="m84 28c0-0.8 0-1.5 0-2 0-0.4 0.1-0.9 0.1-1.3 0.2-1.3 1.3-2.2 2.6-2.2 0.9 0 1.7 0.3 2.3 1.1 0.2 0.3 0.4 0.7 0.5 1.1 0 0 0 0.1 0.1 0.1h3.2c0 0 0.1 0 0.1-0.1-0.3-1.8-1.4-3.6-3.2-4.5-0.9-0.4-1.9-0.6-2.9-0.6q-2.6 0-4.4 1.8c-0.7 0.7-1.2 1.5-1.4 2.4-0.2 0.9-0.3 2.3-0.3 4.1 0 1.8 0.1 3.2 0.3 4 0.2 0.9 0.7 1.8 1.3 2.5q1.8 1.8 4.4 1.8c1 0 2-0.2 2.9-0.6 1.8-0.9 2.9-2.6 3.2-4.5 0 0 0-0.1-0.1-0.1h-3.1c0 0-0.1 0-0.1 0.1-0.1 0.3-0.3 0.7-0.5 1.1-0.5 0.8-1.4 1.1-2.3 1.1-1.3 0-2.4-0.8-2.6-2.2-0.1-0.4-0.1-0.9-0.1-1.3 0-0.3 0-1 0-1.8z"/><path class="b" d="m51.2 20.1q0-0.3-0.3-0.3h-2.5q-0.3 0-0.3 0.3v15.8q0 0.3 0.3 0.3h2.6q0.3 0 0.3-0.3v-4.7l2.1-2.5 4.3 7.4c0 0.1 0.1 0.1 0.2 0.1h3.2c0.1 0 0.2-0.1 0.1-0.2l-5.7-9.7 5.2-6.2c0.1-0.1 0.1-0.3-0.1-0.3h-3.5c0 0-0.1 0-0.1 0.1l-5.7 6.9v-6.7z"/><path class="b" d="m70.5 33.5c-1.5 0-2.9-1.4-2.9-2.9v-10.5q0-0.3-0.3-0.3h-2.7q-0.3 0-0.3 0.3v10.4c0 3.6 2.7 5.9 6.1 5.9 3.3 0 6-2.3 6-5.9v-10.4q0-0.3-0.3-0.3h-2.7q-0.3 0-0.3 0.3v10.4c0.1 1.6-1.2 3-2.6 3z"/><path fill-rule="evenodd" class="b" d="m21.6 28l8.2 8.2 5.1-5.1c0.9-0.8 2.4-0.8 3.3 0.1 0.9 0.8 0.9 2.2 0.1 3.2l-6.9 6.7c-0.9 0.9-2.4 0.9-3.3 0l-9.8-9.8v5.9c0 1.3-1.1 2.3-2.4 2.3-1.3 0-2.4-1-2.4-2.3v-18.3c0-1.3 1.1-2.4 2.4-2.4 1.3 0 2.4 1.1 2.4 2.4v5.8l9.8-9.8c0.9-0.9 2.4-0.9 3.3 0l6.8 6.8c0.8 0.9 0.8 2.3-0.1 3.2-0.9 0.9-2.3 0.9-3.3 0.1l-5.1-5.1zm9.9-1.6c0.5 0.5 0.7 1.1 0.7 1.7 0 1-0.6 1.8-1.5 2.2-0.9 0.4-1.9 0.2-2.6-0.5-0.7-0.7-0.9-1.7-0.5-2.6 0.4-0.9 1.2-1.5 2.2-1.5 0.6 0 1.2 0.2 1.7 0.7z"/></svg>